<svg xmlns="http://www.w3.org/2000/svg" width="256" height="256"><path fill-opacity=".016" d="M0 128.004v128.004l128.25-.254 128.25-.254.254-127.75L257.008 0H0v128.004m.485.496c0 70.4.119 99.053.265 63.672.146-35.38.146-92.98 0-128C.604 29.153.485 58.1.485 128.5" fill="#1976D2" fill-rule="evenodd"/><path fill-opacity=".063" d="M109.5.924C57.067 9.362 17.088 45.917 3.328 98 .75 107.759.554 109.877.554 128c0 18.123.196 20.241 2.774 30 7.574 28.669 22.162 51.866 43.332 68.903 15.974 12.856 30.991 20.393 51.34 25.769 9.759 2.578 11.877 2.774 30 2.774 18.123 0 20.241-.196 30-2.774 48.087-12.704 82.425-46.945 94.438-94.172 1.399-5.5 2.548-11.436 2.553-13.191.005-1.755.459-3.469 1.009-3.809.59-.364 1-6.363 1-14.618 0-9.079-.352-13.783-1-13.382-.589.364-1.004-.742-1.009-2.691-.014-4.908-4.627-22.156-8.413-31.454-12.516-30.736-39.197-57.417-69.933-69.933C160.725 2.94 150.381.892 131.5.485c-9.35-.201-19.25-.004-22 .439m51.871 52.896c-.562.374-2.98 3.605-5.374 7.18-11.691 17.459-36.046 37.353-65.409 53.429-7.713 4.222-10.536 6.263-10.13 7.323.31.808 2.428 5.654 4.706 10.768 3.201 7.188 4.505 9.17 5.739 8.73 3.947-1.408 96.592-44.345 97.378-45.131.96-.96-7.778-19.756-13.77-29.619-5.492-9.04-10.847-14.208-13.14-12.68m29.66 47.68c0 .55.436 1.675.969 2.5.533.825.969 1.05.969.5s-.436-1.675-.969-2.5c-.533-.825-.969-1.05-.969-.5M.397 128c0 7.975.156 11.238.346 7.25.189-3.988.189-10.513 0-14.5-.19-3.987-.346-.725-.346 7.25m203.875 14c0 2.475.195 3.488.434 2.25.238-1.238.238-3.262 0-4.5-.239-1.238-.434-.225-.434 2.25m-24.459 2.683c.721.289 1.584.253 1.916-.079.332-.332-.258-.568-1.312-.525-1.165.048-1.402.285-.604.604m-14.063.979c.688.278 1.813.278 2.5 0 .688-.277.125-.504-1.25-.504s-1.937.227-1.25.504m28.063.021c.721.289 1.584.253 1.916-.079.332-.332-.258-.568-1.312-.525-1.165.048-1.402.285-.604.604m5 1c.721.289 1.584.253 1.916-.079.332-.332-.258-.568-1.312-.525-1.165.048-1.402.285-.604.604m-106.782.817c0 .55.436 1.675.969 2.5.533.825.969 1.05.969.5s-.436-1.675-.969-2.5c-.533-.825-.969-1.05-.969-.5m60.782.183c.721.289 1.584.253 1.916-.079.332-.332-.258-.568-1.312-.525-1.165.048-1.402.285-.604.604M96.031 156.5c0 .55.436 1.675.969 2.5.533.825.969 1.05.969.5s-.436-1.675-.969-2.5c-.533-.825-.969-1.05-.969-.5" fill="#1976D2" fill-rule="evenodd"/><path fill-opacity=".362" d="M115.5 1.002C85.172 4.047 59.848 16.132 37.99 37.99 12.786 63.194.78 92.2.734 128c-.045 35.429 12.494 65.581 37.651 90.533 27.351 27.128 63.344 40.041 101.674 36.476 34.892-3.244 66.02-20.136 88.084-47.797 15.061-18.882 25.153-43.777 26.537-65.462.342-5.363 1.004-9.75 1.471-9.75.467 0 .842-2.363.834-5.25-.011-3.758-.291-4.824-.985-3.75-.684 1.059-.974-.307-.985-4.64-.017-6.934-2.931-22.205-5.943-31.145-12.65-37.551-44.371-68.793-81.901-80.663-16.04-5.073-35.553-7.169-51.671-5.55m44.716 53.248c-.566.688-2.6 3.589-4.52 6.448-11.856 17.655-34.601 36.236-65.196 53.261-6.05 3.367-10.879 6.577-10.732 7.135.147.557 3.244 7.626 6.882 15.709 3.638 8.084 11.284 25.472 16.991 38.642 5.707 13.17 11.351 24.982 12.542 26.25 2.599 2.767 6.457 2.909 12.817.472 7.945-3.044 8.03-4.207 1.947-26.769-2.882-10.691-4.969-19.709-4.638-20.04 1.081-1.081 18.931-5.41 30.54-7.406 12.753-2.193 32.985-2.61 41.198-.848 6.464 1.386 7.525.487 7.243-6.138-.509-11.942-19.83-58.281-32.203-77.235-6.294-9.642-10.306-12.597-12.871-9.481m30.109 30c4.745 10.996 9.288 20.688 9.709 20.715.294.019 1.307-1.272 2.25-2.869 2.462-4.167 2.25-11.146-.426-14.018-3.531-3.79-12.851-6.884-11.533-3.828M.3 128c0 3.025.187 4.262.416 2.75.229-1.512.229-3.987 0-5.5S.3 124.975.3 128" fill="#1976D2" fill-rule="evenodd"/><path fill-opacity=".147" d="M168.461 57.25C179.602 68.777 206 128.671 206 142.421c0 1.758-.562 3.956-1.25 4.884-1.089 1.471-1.765 1.532-5.25.479-6.141-1.857-32.189-1.5-43 .589-8.019 1.55-29.632 6.61-30.233 7.079-.129.1 2.009 8.384 4.75 18.41 2.74 10.026 4.983 19.509 4.983 21.073 0 4.163-2.708 6.54-9.785 8.586-6.189 1.789-6.327 1.786-9-.195-1.867-1.383-4.529-6.2-8.523-15.419-3.194-7.374-11.178-25.557-17.743-40.407l-11.936-27-17.96 8.71c-24.398 11.832-24.461 11.968-15.12 32.841l5.124 11.449 40.722 40.833 40.721 40.833 8.045-.619c38.811-2.983 76.218-26.901 97.25-62.181 8.095-13.58 15.038-34.025 16.476-48.521l.462-4.656-43.661-43.594C182.48 67.046 166.717 52 165.399 52c-1.627 0-1.042 1.004 3.062 5.25M189 82.487c0 .12 2.25 4.988 5 10.818 2.75 5.83 5 11.071 5 11.647 0 2.399 1.961.761 3.911-3.268 4.597-9.497.673-16.73-10.161-18.725-2.062-.38-3.75-.592-3.75-.472" fill="#1976D2" fill-rule="evenodd"/></svg>